<svg width="24" height="24" viewBox="0 0 24 24" fill="none" xmlns="http://www.w3.org/2000/svg">
<path d="M20.047 16.473C18.843 15 17.994 14.25 17.994 10.188C17.994 6.468 16.094 5.144 14.531 4.5C14.4229 4.45479 14.3256 4.38735 14.2453 4.30207C14.165 4.21679 14.1036 4.11558 14.065 4.005C13.79 3.072 13.022 2.25 12 2.25C10.978 2.25 10.209 3.073 9.93699 4.006C9.89871 4.11663 9.83737 4.21788 9.75704 4.30304C9.6767 4.3882 9.5792 4.45533 9.47099 4.5C7.90599 5.145 6.00799 6.465 6.00799 10.188C6.00599 14.25 5.15599 15 3.95199 16.473C3.45299 17.083 3.88999 18 4.76199 18H19.242C20.109 18 20.543 17.08 20.047 16.473Z" stroke="#0055CA" stroke-width="1.5" stroke-linecap="round" stroke-linejoin="round"/>
<path d="M15 18V18.75C15 19.5456 14.6839 20.3087 14.1213 20.8713C13.5587 21.4339 12.7956 21.75 12 21.75C11.2044 21.75 10.4413 21.4339 9.87868 20.8713C9.31607 20.3087 9 19.5456 9 18.75V18" stroke="#0055CA" stroke-width="1.5" stroke-linecap="round" stroke-linejoin="round"/>
</svg>
