<svg width="24" height="24" viewBox="0 0 24 24" fill="none" xmlns="http://www.w3.org/2000/svg">
<path d="M8.25 20.25C8.44891 20.25 8.63968 20.171 8.78033 20.0303C8.92098 19.8897 9 19.6989 9 19.5C9 19.3011 8.92098 19.1103 8.78033 18.9697C8.63968 18.829 8.44891 18.75 8.25 18.75C8.05109 18.75 7.86032 18.829 7.71967 18.9697C7.57902 19.1103 7.5 19.3011 7.5 19.5C7.5 19.6989 7.57902 19.8897 7.71967 20.0303C7.86032 20.171 8.05109 20.25 8.25 20.25Z" stroke="#0055CA" stroke-width="1.5" stroke-linecap="round" stroke-linejoin="round"/>
<path d="M18.75 20.25C18.9489 20.25 19.1397 20.171 19.2803 20.0303C19.421 19.8897 19.5 19.6989 19.5 19.5C19.5 19.3011 19.421 19.1103 19.2803 18.9697C19.1397 18.829 18.9489 18.75 18.75 18.75C18.5511 18.75 18.3603 18.829 18.2197 18.9697C18.079 19.1103 18 19.3011 18 19.5C18 19.6989 18.079 19.8897 18.2197 20.0303C18.3603 20.171 18.5511 20.25 18.75 20.25Z" stroke="#0055CA" stroke-width="1.5" stroke-linecap="round" stroke-linejoin="round"/>
<path d="M2.25 3.75H5.25L7.5 16.5H19.5" stroke="#0055CA" stroke-width="1.5" stroke-linecap="round" stroke-linejoin="round"/>
<path d="M7.5 13.5H19.192C19.2788 13.5003 19.3631 13.4705 19.4304 13.4156C19.4977 13.3607 19.5439 13.2841 19.561 13.199L20.911 6.449C20.9218 6.3944 20.9204 6.33807 20.9067 6.2841C20.8931 6.23012 20.8677 6.17984 20.8323 6.13688C20.7969 6.09393 20.7524 6.05936 20.7021 6.03569C20.6517 6.01202 20.5967 5.99983 20.541 6H6" fill="#0055CA" stroke-width="1.5" stroke-linecap="round" stroke-linejoin="round"/>
</svg>
