<svg width="21" height="20" viewBox="0 0 21 20" fill="none" xmlns="http://www.w3.org/2000/svg">
<path d="M7 5.375C7 5.12877 6.9515 4.88495 6.85727 4.65747C6.76305 4.42998 6.62494 4.22328 6.45083 4.04917C6.27672 3.87506 6.07002 3.73695 5.84253 3.64273C5.61505 3.5485 5.37123 3.5 5.125 3.5C4.87877 3.5 4.63495 3.5485 4.40747 3.64273C4.17998 3.73695 3.97328 3.87506 3.79917 4.04917C3.62506 4.22328 3.48695 4.42998 3.39273 4.65747C3.2985 4.88495 3.25 5.12877 3.25 5.375C3.25 5.87228 3.44754 6.34919 3.79918 6.70083C4.15081 7.05246 4.62772 7.25 5.125 7.25C5.62228 7.25 6.09919 7.05246 6.45082 6.70083C6.80246 6.34919 7 5.87228 7 5.375Z" stroke="#0055CA" stroke-width="1.5"/>
<path d="M17.75 5.375C17.75 4.87772 17.5525 4.40081 17.2008 4.04917C16.8492 3.69754 16.3723 3.5 15.875 3.5C15.3777 3.5 14.9008 3.69754 14.5492 4.04917C14.1975 4.40081 14 4.87772 14 5.375C14 5.87228 14.1975 6.34919 14.5492 6.70083C14.9008 7.05246 15.3777 7.25 15.875 7.25C16.3723 7.25 16.8492 7.05246 17.2008 6.70083C17.5525 6.34919 17.75 5.87228 17.75 5.375Z" stroke="#0055CA" stroke-width="1.5"/>
<path d="M7 15.125C7 14.8788 6.9515 14.635 6.85727 14.4075C6.76305 14.18 6.62494 13.9733 6.45083 13.7992C6.27672 13.6251 6.07002 13.487 5.84253 13.3927C5.61505 13.2985 5.37123 13.25 5.125 13.25C4.87877 13.25 4.63495 13.2985 4.40747 13.3927C4.17998 13.487 3.97328 13.6251 3.79917 13.7992C3.62506 13.9733 3.48695 14.18 3.39273 14.4075C3.2985 14.635 3.25 14.8788 3.25 15.125C3.25 15.6223 3.44754 16.0992 3.79918 16.4508C4.15081 16.8025 4.62772 17 5.125 17C5.62228 17 6.09919 16.8025 6.45082 16.4508C6.80246 16.0992 7 15.6223 7 15.125Z" stroke="#0055CA" stroke-width="1.5"/>
<path d="M17.75 15.125C17.75 14.6277 17.5525 14.1508 17.2008 13.7992C16.8492 13.4475 16.3723 13.25 15.875 13.25C15.3777 13.25 14.9008 13.4475 14.5492 13.7992C14.1975 14.1508 14 14.6277 14 15.125C14 15.6223 14.1975 16.0992 14.5492 16.4508C14.9008 16.8025 15.3777 17 15.875 17C16.3723 17 16.8492 16.8025 17.2008 16.4508C17.5525 16.0992 17.75 15.6223 17.75 15.125Z" stroke="#0055CA" stroke-width="1.5"/>
</svg>
