<svg width="25" height="24" viewBox="0 0 25 24" fill="none" xmlns="http://www.w3.org/2000/svg">
<path d="M21.0123 9.72002L13.5123 2.90502C13.2358 2.65233 12.8748 2.51221 12.5003 2.51221C12.1257 2.51221 11.7647 2.65233 11.4883 2.90502L3.98826 9.72102C3.83464 9.86143 3.71192 10.0323 3.62791 10.2227C3.54389 10.4131 3.50042 10.6189 3.50026 10.827V19.461C3.49426 19.839 3.62726 20.207 3.87526 20.493C4.01586 20.6527 4.18898 20.7805 4.38301 20.8677C4.57705 20.955 4.7875 20.9998 5.00026 20.999H9.50026C9.69917 20.999 9.88993 20.92 10.0306 20.7794C10.1712 20.6387 10.2503 20.4479 10.2503 20.249V15.749C10.2503 15.5501 10.3293 15.3593 10.4699 15.2187C10.6106 15.078 10.8013 14.999 11.0003 14.999H14.0003C14.1992 14.999 14.3899 15.078 14.5306 15.2187C14.6712 15.3593 14.7503 15.5501 14.7503 15.749V20.249C14.7503 20.4479 14.8293 20.6387 14.9699 20.7794C15.1106 20.92 15.3013 20.999 15.5003 20.999H20.0003C20.2493 21.001 20.4943 20.939 20.7123 20.821C20.9501 20.6916 21.1487 20.5005 21.2873 20.268C21.426 20.0354 21.4995 19.7698 21.5003 19.499V10.827C21.5001 10.6189 21.4566 10.4131 21.3726 10.2227C21.2886 10.0323 21.1659 9.86043 21.0123 9.72002Z" fill="#0055CA"/>
</svg>
