<svg width="820" height="357" viewBox="0 0 820 357" fill="none" xmlns="http://www.w3.org/2000/svg">
<rect x="1" y="1" width="818" height="355" rx="7" fill="#9DA5B1" fill-opacity="0.1" stroke="#D8D8D8" stroke-width="2" stroke-dasharray="4 4"/>
<g clip-path="url(#clip0_1432_5518)">
<path d="M421.846 151.018C421.849 147.873 419.302 145.321 416.157 145.317C413.013 145.314 410.461 147.862 410.458 151.007C410.454 154.153 413.001 156.705 416.146 156.708C419.291 156.711 421.843 154.164 421.846 151.018Z" fill="#9DA5B1"/>
<path d="M416.099 178.055C416.099 184.652 421.447 190 428.043 190C434.64 190 439.987 184.652 439.987 178.055C439.987 171.459 434.64 166.11 428.043 166.11C421.447 166.11 416.099 171.459 416.099 178.055ZM430.269 172.913V175.828H433.183C434.412 175.828 435.41 176.826 435.41 178.055C435.41 179.284 434.412 180.282 433.183 180.282H430.269V183.197C430.269 184.427 429.271 185.424 428.042 185.424C426.813 185.424 425.815 184.427 425.815 183.197V180.282H422.901C421.672 180.282 420.674 179.284 420.674 178.055C420.674 176.826 421.672 175.828 422.901 175.828H425.815V172.913C425.815 171.684 426.813 170.686 428.042 170.686C429.271 170.686 430.269 171.684 430.269 172.913Z" fill="#9DA5B1"/>
<path d="M381.043 171.096C382.124 177.222 387.559 182.657 393.685 183.74L393.707 183.743C397.934 184.446 402.406 184.791 407.384 184.796C409.785 184.793 412.068 184.71 414.264 184.547C413.317 182.542 412.819 180.336 412.819 178.053C412.819 173.985 414.402 170.163 417.278 167.286C419.509 165.053 422.313 163.6 425.357 163.061C425.295 162.973 425.233 162.885 425.171 162.797C422.904 159.603 418.625 159.504 416.586 162.688C416.35 163.054 416.115 163.42 415.877 163.785C414.513 165.885 411.613 165.878 410.199 163.756C407.598 159.859 405.032 155.958 402.624 152.086C400.633 148.88 396.585 148.967 394.346 152.213C391.209 156.784 387.973 161.331 384.834 165.804C384.572 163.158 384.442 160.376 384.439 157.398C384.445 152.673 384.768 148.442 385.429 144.462C385.797 142.397 386.93 140.329 388.622 138.636C390.315 136.943 392.383 135.809 394.448 135.441C398.426 134.78 402.658 134.455 407.377 134.451C412.1 134.455 416.331 134.78 420.312 135.441C422.377 135.809 424.445 136.942 426.138 138.636C427.83 140.328 428.964 142.397 429.331 144.462C429.992 148.443 430.316 152.675 430.321 157.394C430.319 159.331 430.263 161.184 430.151 162.972C431.677 163.183 433.15 163.62 434.527 164.269C434.689 162.075 434.772 159.794 434.774 157.394C434.768 152.419 434.424 147.947 433.722 143.72L433.718 143.698C432.636 137.573 427.202 132.138 421.076 131.055L421.054 131.051C416.828 130.35 412.356 130.006 407.378 130C402.404 130.006 397.931 130.35 393.706 131.052L393.684 131.056C387.559 132.14 382.124 137.575 381.043 143.7L381.039 143.723C380.336 147.948 379.991 152.42 379.986 157.401C379.991 162.379 380.336 166.852 381.038 171.075L381.041 171.098L381.043 171.096Z" fill="#9DA5B1"/>
</g>
<path d="M342.368 223V219.58C342.368 218.824 342.536 218.278 342.872 217.942C343.208 217.594 343.634 217.354 344.15 217.222L344.168 217.168L342.188 216.412V215.818C342.188 215.326 342.35 214.864 342.674 214.432C342.998 213.988 343.46 213.634 344.06 213.37C344.672 213.094 345.398 212.956 346.238 212.956C346.97 212.956 347.648 213.076 348.272 213.316C348.896 213.544 349.394 213.91 349.766 214.414C350.15 214.906 350.342 215.554 350.342 216.358V223H348.74V216.52C348.74 215.716 348.494 215.146 348.002 214.81C347.522 214.462 346.928 214.288 346.22 214.288C345.488 214.288 344.906 214.444 344.474 214.756C344.042 215.056 343.826 215.44 343.826 215.908L345.77 216.88L345.626 217.744C345.182 217.744 344.792 217.894 344.456 218.194C344.132 218.482 343.97 218.944 343.97 219.58V223H342.368ZM356.617 223.18C355.657 223.18 354.901 222.958 354.349 222.514C353.809 222.058 353.425 221.446 353.197 220.678C352.981 219.91 352.873 219.064 352.873 218.14C352.873 217.12 352.975 216.28 353.179 215.62C353.395 214.948 353.695 214.42 354.079 214.036C354.475 213.64 354.943 213.364 355.483 213.208C356.035 213.04 356.641 212.956 357.301 212.956C358.261 212.956 359.041 213.1 359.641 213.388C360.253 213.664 360.703 214.06 360.991 214.576C361.279 215.092 361.423 215.71 361.423 216.43V223H359.839V216.574C359.839 215.83 359.653 215.266 359.281 214.882C358.909 214.486 358.267 214.288 357.355 214.288C356.803 214.288 356.305 214.39 355.861 214.594C355.429 214.798 355.087 215.176 354.835 215.728C354.595 216.28 354.475 217.09 354.475 218.158C354.475 218.854 354.541 219.484 354.673 220.048C354.817 220.6 355.063 221.038 355.411 221.362C355.759 221.686 356.245 221.848 356.869 221.848C357.049 221.848 357.217 221.836 357.373 221.812C357.529 221.788 357.679 221.752 357.823 221.704L357.985 222.946C357.793 223.03 357.571 223.09 357.319 223.126C357.079 223.162 356.845 223.18 356.617 223.18ZM366.575 223.18C366.251 223.18 365.939 223.126 365.639 223.018C365.339 222.91 365.093 222.718 364.901 222.442C364.709 222.166 364.613 221.782 364.613 221.29V213.136H366.215V221.092C366.215 221.368 366.275 221.566 366.395 221.686C366.515 221.806 366.707 221.866 366.971 221.866C367.079 221.866 367.193 221.854 367.313 221.83C367.433 221.806 367.547 221.776 367.655 221.74L367.871 222.91C367.643 223.018 367.421 223.09 367.205 223.126C366.989 223.162 366.779 223.18 366.575 223.18ZM370.379 223L368.597 213.136H370.235L370.937 217.42C370.997 217.768 371.057 218.218 371.117 218.77C371.177 219.322 371.249 219.976 371.333 220.732H371.387C371.495 220.216 371.597 219.754 371.693 219.346C371.801 218.938 371.897 218.572 371.981 218.248C372.077 217.912 372.161 217.618 372.233 217.366L373.439 213.136H374.753L375.977 217.366C376.049 217.618 376.127 217.912 376.211 218.248C376.307 218.572 376.403 218.938 376.499 219.346C376.607 219.754 376.715 220.216 376.823 220.732H376.895C376.967 219.976 377.033 219.322 377.093 218.77C377.153 218.218 377.213 217.768 377.273 217.42L377.993 213.136H379.631L377.849 223H376.283L374.627 217.636C374.543 217.336 374.459 217.024 374.375 216.7C374.303 216.376 374.231 215.95 374.159 215.422H374.087C374.039 215.77 373.985 216.076 373.925 216.34C373.865 216.604 373.805 216.838 373.745 217.042C373.685 217.246 373.625 217.444 373.565 217.636L371.945 223H370.379ZM371.228 211.57V210.868L372.542 210.292H378.878V211.57H371.228ZM374.936 210.868V208.834H376.268V210.868H374.936ZM377.564 210.868V208.834H378.878V210.868H377.564ZM376.189 207.772V204.838H377.719V207.772H376.189ZM385.325 223.18C384.029 223.18 383.057 222.844 382.409 222.172C381.773 221.488 381.455 220.42 381.455 218.968C381.455 218.728 381.461 218.47 381.473 218.194C381.497 217.906 381.521 217.624 381.545 217.348H385.325V218.608H383.057V218.968C383.057 219.724 383.141 220.318 383.309 220.75C383.477 221.17 383.723 221.464 384.047 221.632C384.383 221.8 384.797 221.884 385.289 221.884C385.829 221.884 386.297 221.782 386.693 221.578C387.089 221.374 387.395 221.002 387.611 220.462C387.827 219.922 387.935 219.148 387.935 218.14C387.935 217.252 387.839 216.526 387.647 215.962C387.455 215.398 387.137 214.978 386.693 214.702C386.261 214.426 385.673 214.288 384.929 214.288C384.545 214.288 384.173 214.324 383.813 214.396C383.453 214.456 383.105 214.552 382.769 214.684C382.433 214.804 382.103 214.96 381.779 215.152V213.658C382.019 213.526 382.313 213.412 382.661 213.316C383.009 213.208 383.393 213.124 383.813 213.064C384.233 212.992 384.671 212.956 385.127 212.956C386.183 212.956 387.035 213.172 387.683 213.604C388.343 214.024 388.823 214.624 389.123 215.404C389.423 216.172 389.573 217.084 389.573 218.14C389.573 219.196 389.435 220.102 389.159 220.858C388.883 221.614 388.433 222.19 387.809 222.586C387.197 222.982 386.369 223.18 385.325 223.18ZM394.401 223.18C394.077 223.18 393.765 223.126 393.465 223.018C393.165 222.91 392.919 222.718 392.727 222.442C392.535 222.166 392.439 221.782 392.439 221.29V213.136H394.041V221.092C394.041 221.368 394.101 221.566 394.221 221.686C394.341 221.806 394.533 221.866 394.797 221.866C394.905 221.866 395.019 221.854 395.139 221.83C395.259 221.806 395.373 221.776 395.481 221.74L395.697 222.91C395.469 223.018 395.247 223.09 395.031 223.126C394.815 223.162 394.605 223.18 394.401 223.18ZM398.206 223L396.424 213.136H398.062L398.764 217.42C398.824 217.768 398.884 218.218 398.944 218.77C399.004 219.322 399.076 219.976 399.16 220.732H399.214C399.322 220.216 399.424 219.754 399.52 219.346C399.628 218.938 399.724 218.572 399.808 218.248C399.904 217.912 399.988 217.618 400.06 217.366L401.266 213.136H402.58L403.804 217.366C403.876 217.618 403.954 217.912 404.038 218.248C404.134 218.572 404.23 218.938 404.326 219.346C404.434 219.754 404.542 220.216 404.65 220.732H404.722C404.794 219.976 404.86 219.322 404.92 218.77C404.98 218.218 405.04 217.768 405.1 217.42L405.82 213.136H407.458L405.676 223H404.11L402.454 217.636C402.37 217.336 402.286 217.024 402.202 216.7C402.13 216.376 402.058 215.95 401.986 215.422H401.914C401.866 215.77 401.812 216.076 401.752 216.34C401.692 216.604 401.632 216.838 401.572 217.042C401.512 217.246 401.452 217.444 401.392 217.636L399.772 223H398.206ZM399.055 211.57V210.868L400.369 210.292H406.705V211.57H399.055ZM405.193 208.772V205.838H406.723V208.772H405.193ZM414.411 223.18C413.643 223.18 412.977 223.03 412.413 222.73C411.861 222.418 411.483 221.986 411.279 221.434H411.207L411.117 223H409.803V213.136H411.405V218.842C411.405 219.442 411.507 219.97 411.711 220.426C411.927 220.87 412.233 221.218 412.629 221.47C413.037 221.71 413.523 221.83 414.087 221.83C414.795 221.83 415.323 221.644 415.671 221.272C416.019 220.9 416.193 220.354 416.193 219.634V213.136H417.795V219.742C417.795 220.534 417.657 221.182 417.381 221.686C417.117 222.19 416.733 222.568 416.229 222.82C415.725 223.06 415.119 223.18 414.411 223.18ZM423.488 223.18C422.78 223.18 422.12 223.114 421.508 222.982C420.908 222.838 420.398 222.67 419.978 222.478L420.446 221.182C420.698 221.278 420.986 221.38 421.31 221.488C421.634 221.596 421.982 221.686 422.354 221.758C422.738 221.818 423.128 221.848 423.524 221.848C424.16 221.848 424.688 221.728 425.108 221.488C425.528 221.248 425.738 220.9 425.738 220.444C425.738 220.168 425.66 219.934 425.504 219.742C425.36 219.538 425.132 219.352 424.82 219.184C424.508 219.016 424.106 218.854 423.614 218.698C422.858 218.458 422.216 218.206 421.688 217.942C421.172 217.666 420.776 217.342 420.5 216.97C420.236 216.586 420.104 216.112 420.104 215.548C420.104 215.044 420.236 214.6 420.5 214.216C420.776 213.82 421.196 213.514 421.76 213.298C422.336 213.07 423.068 212.956 423.956 212.956C424.532 212.956 425.072 213.01 425.576 213.118C426.092 213.214 426.494 213.352 426.782 213.532V214.882C426.578 214.786 426.32 214.69 426.008 214.594C425.708 214.498 425.378 214.42 425.018 214.36C424.658 214.3 424.286 214.27 423.902 214.27C423.098 214.27 422.528 214.396 422.192 214.648C421.868 214.888 421.706 215.164 421.706 215.476C421.706 215.74 421.778 215.962 421.922 216.142C422.078 216.322 422.336 216.496 422.696 216.664C423.068 216.832 423.566 217.024 424.19 217.24C424.766 217.432 425.294 217.654 425.774 217.906C426.254 218.158 426.632 218.476 426.908 218.86C427.196 219.232 427.34 219.712 427.34 220.3C427.34 220.804 427.214 221.278 426.962 221.722C426.722 222.154 426.32 222.508 425.756 222.784C425.192 223.048 424.436 223.18 423.488 223.18ZM424.105 227.77C423.337 227.77 422.755 227.614 422.359 227.302C421.951 227.002 421.747 226.57 421.747 226.006V225.7C421.747 225.496 421.699 225.37 421.603 225.322C421.495 225.286 421.351 225.292 421.171 225.34L421.063 224.26C421.231 224.212 421.399 224.182 421.567 224.17C421.723 224.158 421.843 224.152 421.927 224.152C422.359 224.152 422.671 224.248 422.863 224.44C423.043 224.632 423.133 224.902 423.133 225.25V225.862C423.133 226.09 423.205 226.282 423.349 226.438C423.493 226.594 423.739 226.672 424.087 226.672C424.447 226.672 424.699 226.594 424.843 226.438C424.975 226.282 425.041 226.09 425.041 225.862V224.206H426.445V225.952C426.445 226.54 426.247 226.99 425.851 227.302C425.455 227.614 424.873 227.77 424.105 227.77ZM433.465 223.18C432.049 223.18 431.035 222.856 430.423 222.208C429.811 221.56 429.505 220.636 429.505 219.436V213.136H431.107V219.454C431.107 220.258 431.299 220.858 431.683 221.254C432.067 221.65 432.661 221.848 433.465 221.848C434.281 221.848 434.881 221.65 435.265 221.254C435.661 220.858 435.859 220.258 435.859 219.454V209.59H437.461V219.436C437.461 220.636 437.149 221.56 436.525 222.208C435.913 222.856 434.893 223.18 433.465 223.18ZM440.529 223.18C440.313 223.18 440.103 223.156 439.899 223.108C439.695 223.072 439.491 223.006 439.287 222.91L439.467 221.794C439.551 221.818 439.647 221.842 439.755 221.866C439.863 221.89 439.965 221.902 440.061 221.902C440.253 221.902 440.391 221.848 440.475 221.74C440.559 221.62 440.601 221.434 440.601 221.182V219.508C440.601 218.764 440.739 218.23 441.015 217.906C441.291 217.57 441.687 217.342 442.203 217.222L442.221 217.168L440.151 216.412V215.818C440.151 215.326 440.307 214.864 440.619 214.432C440.943 213.988 441.411 213.634 442.023 213.37C442.635 213.094 443.367 212.956 444.219 212.956C444.963 212.956 445.647 213.076 446.271 213.316C446.895 213.544 447.393 213.91 447.765 214.414C448.149 214.906 448.341 215.554 448.341 216.358V223H446.739V216.52C446.739 215.716 446.493 215.146 446.001 214.81C445.509 214.462 444.909 214.288 444.201 214.288C443.457 214.288 442.869 214.444 442.437 214.756C442.005 215.056 441.789 215.44 441.789 215.908L443.841 216.88L443.697 217.744C443.253 217.744 442.893 217.888 442.617 218.176C442.341 218.464 442.203 218.926 442.203 219.562V221.308C442.203 222.04 442.041 222.538 441.717 222.802C441.393 223.054 440.997 223.18 440.529 223.18ZM454.039 223V215.998C454.039 215.41 453.901 214.978 453.625 214.702C453.361 214.426 452.911 214.288 452.275 214.288C451.843 214.288 451.435 214.348 451.051 214.468C450.679 214.576 450.319 214.732 449.971 214.936V213.496C450.211 213.376 450.553 213.256 450.997 213.136C451.441 213.016 451.969 212.956 452.581 212.956C453.205 212.956 453.745 213.046 454.201 213.226C454.657 213.406 455.011 213.706 455.263 214.126C455.515 214.534 455.641 215.08 455.641 215.764V223H454.039ZM459.624 223L457.842 213.136H459.48L460.182 217.42C460.242 217.768 460.302 218.218 460.362 218.77C460.422 219.322 460.494 219.976 460.578 220.732H460.632C460.74 220.216 460.842 219.754 460.938 219.346C461.046 218.938 461.142 218.572 461.226 218.248C461.322 217.912 461.406 217.618 461.478 217.366L462.684 213.136H463.998L465.222 217.366C465.294 217.618 465.372 217.912 465.456 218.248C465.552 218.572 465.648 218.938 465.744 219.346C465.852 219.754 465.96 220.216 466.068 220.732H466.14C466.212 219.976 466.278 219.322 466.338 218.77C466.398 218.218 466.458 217.768 466.518 217.42L467.238 213.136H468.876L467.094 223H465.528L463.872 217.636C463.788 217.336 463.704 217.024 463.62 216.7C463.548 216.376 463.476 215.95 463.404 215.422H463.332C463.284 215.77 463.23 216.076 463.17 216.34C463.11 216.604 463.05 216.838 462.99 217.042C462.93 217.246 462.87 217.444 462.81 217.636L461.19 223H459.624Z" fill="#9DA5B1"/>
<defs>
<clipPath id="clip0_1432_5518">
<rect width="60" height="60" fill="white" transform="translate(379.986 130)"/>
</clipPath>
</defs>
</svg>
